<svg width="14" height="14" viewBox="0 0 14 14" fill="none" xmlns="http://www.w3.org/2000/svg">
<g clip-path="url(#clip0_1_132)">
<path d="M13.9489 13.5509L10.7239 10.326C11.8154 9.1308 12.3957 7.55591 12.3407 5.93829C12.2857 4.32068 11.5998 2.78882 10.4297 1.67051C9.25965 0.552199 7.69835 -0.0637381 6.0799 -0.0455049C4.46145 -0.0272716 2.91441 0.623684 1.76982 1.76807C0.625232 2.91246 -0.0259965 4.45938 -0.0445159 6.07783C-0.0630352 7.69627 0.552625 9.25769 1.67073 10.428C2.78883 11.5982 4.32057 12.2844 5.93818 12.3397C7.55578 12.395 9.13078 11.8149 10.3261 10.7237L13.5512 13.9488C13.6039 14.0015 13.6755 14.0311 13.7501 14.0311C13.8247 14.0311 13.8962 14.0014 13.9489 13.9487C14.0017 13.8959 14.0313 13.8244 14.0313 13.7498C14.0313 13.6752 14.0016 13.6037 13.9489 13.5509ZM0.531752 6.15602C0.531752 5.0435 0.861652 3.95597 1.47974 3.03094C2.09782 2.10591 2.97632 1.38494 4.00416 0.9592C5.03199 0.533457 6.16299 0.422063 7.25413 0.639105C8.34528 0.856147 9.34756 1.39188 10.1342 2.17855C10.9209 2.96522 11.4566 3.9675 11.6737 5.05864C11.8907 6.14978 11.7793 7.28078 11.3536 8.30862C10.9278 9.33645 10.2069 10.215 9.28183 10.833C8.35681 11.4511 7.26927 11.781 6.15675 11.781C4.66542 11.7793 3.23566 11.1862 2.18113 10.1316C1.1266 9.07712 0.533427 7.64735 0.531752 6.15602Z" fill="white"/>
</g>
<defs>
<clipPath id="clip0_1_132">
<rect width="14" height="14" fill="white"/>
</clipPath>
</defs>
</svg>
